HIERARCHY
ROOT Hips
{
	OFFSET 0.000000 0.000000 0.000000
	CHANNELS 6 Xposition Yposition Zposition Zrotation Yrotation Xrotation 
	JOINT LHipJoint
	{
		OFFSET 0.000000 0.000000 0.000000
		CHANNELS 3 Zrotation Yrotation Xrotation
		JOINT LeftUpLeg
		{
			OFFSET 1.363060 -1.794630 0.839290
			CHANNELS 3 Zrotation Yrotation Xrotation
			JOINT LeftLeg
			{
				OFFSET 2.448110 -6.726130 0.000000
				CHANNELS 3 Zrotation Yrotation Xrotation
				JOINT LeftFoot
				{
					OFFSET 2.562200 -7.039590 0.000000
					CHANNELS 3 Zrotation Yrotation Xrotation
					JOINT LeftToeBase
					{
						OFFSET 0.157640 -0.433110 2.322550
						CHANNELS 3 Zrotation Yrotation Xrotation
						End Site
						{
							OFFSET 0.000000 0.000000 0.000000
						}
					}
				}
			}
		}
	}
	JOINT RHipJoint
	{
		OFFSET 0.000000 0.000000 0.000000
		CHANNELS 3 Zrotation Yrotation Xrotation
		JOINT RightUpLeg
		{
			OFFSET -1.305520 -1.794630 0.839290
			CHANNELS 3 Zrotation Yrotation Xrotation
			JOINT RightLeg
			{
				OFFSET -2.542530 -6.985550 0.000000
				CHANNELS 3 Zrotation Yrotation Xrotation
				JOINT RightFoot
				{
					OFFSET -2.568260 -7.056230 0.000000
					CHANNELS 3 Zrotation Yrotation Xrotation
					JOINT RightToeBase
					{
						OFFSET -0.164730 -0.452590 2.363150
						CHANNELS 3 Zrotation Yrotation Xrotation
						End Site
						{
							OFFSET 0.000000 0.000000 0.000000
						}
					}
				}
			}
		}
	}
	JOINT LowerBack
	{
		OFFSET 0.000000 0.000000 0.000000
		CHANNELS 3 Zrotation Yrotation Xrotation
		JOINT Spine
		{
			OFFSET 0.028270 2.035590 -0.193380
			CHANNELS 3 Zrotation Yrotation Xrotation
			JOINT Spine1
			{
				OFFSET 0.056720 2.048850 -0.042750
				CHANNELS 3 Zrotation Yrotation Xrotation
				JOINT Neck
				{
					OFFSET 0.000000 0.000000 0.000000
					CHANNELS 3 Zrotation Yrotation Xrotation
					JOINT Neck1
					{
						OFFSET -0.054170 1.746240 0.172020
						CHANNELS 3 Zrotation Yrotation Xrotation
						JOINT Head
						{
							OFFSET 0.104070 1.761360 -0.123970
							CHANNELS 3 Zrotation Yrotation Xrotation
							End Site
							{
								OFFSET 0.000000 0.000000 0.000000
							}
						}
					}
				}
				JOINT LeftShoulder
				{
					OFFSET 0.000000 0.000000 0.000000
					CHANNELS 3 Zrotation Yrotation Xrotation
					JOINT LeftArm
					{
						OFFSET 3.362410 1.200890 -0.311210
						CHANNELS 3 Zrotation Yrotation Xrotation
						JOINT LeftForeArm
						{
							OFFSET 4.983000 -0.000000 -0.000000
							CHANNELS 3 Zrotation Yrotation Xrotation
							JOINT LeftHand
							{
								OFFSET 3.483560 -0.000000 -0.000000
								CHANNELS 3 Zrotation Yrotation Xrotation
								JOINT LeftFingerBase
								{
									OFFSET 0.000000 0.000000 0.000000
									CHANNELS 3 Zrotation Yrotation Xrotation
									JOINT LeftHandIndex1
									{
										OFFSET 0.715260 -0.000000 -0.000000
										CHANNELS 3 Zrotation Yrotation Xrotation
										End Site
										{
											OFFSET 0.000000 0.000000 0.000000
										}
									}
								}
								JOINT LThumb
								{
									OFFSET 0.000000 0.000000 0.000000
									CHANNELS 3 Zrotation Yrotation Xrotation
									End Site
									{
										OFFSET 0.000000 0.000000 0.000000
									}
								}
							}
						}
					}
				}
				JOINT RightShoulder
				{
					OFFSET 0.000000 0.000000 0.000000
					CHANNELS 3 Zrotation Yrotation Xrotation
					JOINT RightArm
					{
						OFFSET -3.136600 1.374050 -0.404650
						CHANNELS 3 Zrotation Yrotation Xrotation
						JOINT RightForeArm
						{
							OFFSET -5.241900 -0.000000 -0.000000
							CHANNELS 3 Zrotation Yrotation Xrotation
							JOINT RightHand
							{
								OFFSET -3.444170 -0.000000 -0.000000
								CHANNELS 3 Zrotation Yrotation Xrotation
								JOINT RightFingerBase
								{
									OFFSET 0.000000 0.000000 0.000000
									CHANNELS 3 Zrotation Yrotation Xrotation
									JOINT RightHandIndex1
									{
										OFFSET -0.622530 -0.000000 -0.000000
										CHANNELS 3 Zrotation Yrotation Xrotation
										End Site
										{
											OFFSET 0.000000 0.000000 0.000000
										}
									}
								}
								JOINT RThumb
								{
									OFFSET 0.000000 0.000000 0.000000
									CHANNELS 3 Zrotation Yrotation Xrotation
									End Site
									{
										OFFSET 0.000000 0.000000 0.000000
									}
								}
							}
						}
					}
				}
			}
		}
	}
}
MOTION
Frames: 6
Frame Time: 0.008333
27.067003 16.951840 2.336021 95.460903 -85.878330 -82.114493 -7.669134 1.856581 3.082392 -20.527420 1.292323 -42.067809 -3.223404 0.721289 28.906739 2.084572 7.395993 -14.577148 -0.941900 -0.000001 -31.543601 11.596106 -4.643809 0.342004 1.912409 -11.820346 6.604769 0.858281 -1.157517 13.875904 -0.151159 0.576261 12.850748 0.010000 -0.000000 -81.724601 -4.823387 0.006671 -5.132830 -1.494686 0.181799 -3.533678 -5.002179 0.051144 2.188820 8.760099 -9.281683 -11.165397 -1.896080 -0.107731 -0.920610 0.000000 0.000000 0.000000 -3.651026 21.821905 1.917775 -72.985511 30.716704 3.813106 -4.126775 -19.849698 -0.013909 -3.181879 3.536744 -0.099422 -0.091928 -0.140698 -0.000000 0.000000 0.000000 0.000000 0.000000 0.000000 0.000000 9.350866 -3.896086 1.267848 55.413008 13.047883 -9.164202 3.276694 26.140513 0.010214 -1.704887 5.503078 -0.090336 0.138537 -0.161844 0.000000 0.000000 0.000000 0.000000 0.000000 0.000000 0.000000 
26.869301 16.979011 2.345848 97.789710 -86.051636 -84.776113 -7.788250 1.762296 3.136452 -19.642667 0.892938 -40.363976 -3.141380 0.577877 28.210914 2.100464 7.492101 -14.914263 -1.030100 0.000000 -31.598800 11.644984 -4.709042 0.197179 1.554375 -12.208729 5.944445 0.666801 -1.439931 16.377778 -0.177778 1.551213 15.984613 0.511300 -0.000001 -84.340199 -4.821013 0.059310 -5.034172 -1.501127 0.236711 -3.510746 -5.027002 0.110013 2.196192 8.808057 -9.297290 -11.126263 -1.884014 -0.107274 -0.909480 0.000000 0.000000 0.000000 -3.610838 21.947981 1.887271 -72.845777 30.645266 3.034139 -4.167555 -19.586247 -0.013885 -3.108471 3.546772 -0.097215 -0.095021 -0.139968 -0.000000 0.000000 0.000000 0.000000 0.000000 0.000000 0.000000 9.336616 -3.887303 1.244220 55.554532 12.529450 -8.972017 3.310119 26.093802 0.010855 -1.421324 5.451490 -0.075438 0.137326 -0.158295 0.000000 0.000000 0.000000 0.000000 0.000000 0.000000 0.000000 
26.672717 17.003739 2.352489 110.381459 -85.813010 -97.783464 -8.001961 1.616025 2.949355 -19.163586 1.536396 -38.585258 -3.108709 0.423442 27.457568 2.094193 7.492478 -15.347161 -1.141000 0.000000 -31.387100 11.642126 -4.786131 0.197328 0.885787 -11.818355 5.089310 0.446595 -1.733004 19.315172 -0.270116 2.529765 19.003829 1.131499 0.000000 -86.086100 -5.099613 0.278930 -4.885313 -1.567174 0.475952 -3.486163 -5.083204 0.350444 2.186787 8.943852 -9.295471 -11.092209 -1.883057 -0.107761 -0.902228 0.000000 0.000000 0.000000 -3.569442 22.152085 1.827172 -72.714838 30.533513 2.245283 -4.205747 -19.378014 -0.013856 -3.040295 3.545584 -0.094919 -0.096844 -0.140356 -0.000000 0.000000 0.000000 0.000000 0.000000 0.000000 0.000000 9.456739 -3.753130 1.246048 55.725458 12.049207 -8.803134 3.341670 26.015617 0.011376 -1.118277 5.392429 -0.059832 0.134792 -0.155614 0.000000 0.000000 0.000000 0.000000 0.000000 0.000000 0.000000 
26.475218 17.019248 2.363518 113.450270 -85.904387 -101.221612 -8.153116 1.540016 2.963241 -18.406034 1.289832 -36.953560 -3.022554 0.320600 27.012690 2.125671 7.654138 -15.793642 -1.258200 0.000000 -30.906500 11.673397 -4.783893 0.038824 0.497483 -12.373152 4.214804 0.252817 -1.939959 22.119527 -0.398040 3.383024 22.104291 1.780300 -0.000001 -86.779199 -5.100127 0.304730 -4.730354 -1.573920 0.504685 -3.455191 -5.118360 0.383663 2.187511 9.018733 -9.295570 -11.052853 -1.883354 -0.108204 -0.891859 0.000000 0.000000 0.000000 -3.511511 22.224979 1.805507 -72.663357 30.370620 1.549784 -4.234866 -19.179044 -0.013796 -2.987382 3.543067 -0.093113 -0.099229 -0.139173 -0.000000 0.000000 0.000000 0.000000 0.000000 0.000000 0.000000 9.515688 -3.739918 1.224134 55.935482 11.522097 -8.630274 3.378133 25.923733 0.011953 -0.813243 5.325024 -0.044336 0.133348 -0.151683 0.000000 0.000000 0.000000 0.000000 0.000000 0.000000 0.000000 
26.278660 17.028554 2.374190 116.497384 -85.980801 -104.645832 -8.303265 1.484211 2.952240 -17.755904 1.166380 -35.436670 -2.942985 0.245227 26.751936 2.157213 7.802876 -16.288783 -1.385300 -0.000000 -30.186401 11.704128 -4.744620 -0.122221 0.116027 -12.997799 3.245289 0.071545 -2.104954 25.033270 -0.570457 3.937669 24.961657 2.332999 0.000000 -86.270799 -5.101987 0.312005 -4.550063 -1.580670 0.515017 -3.420836 -5.160016 0.398581 2.184375 9.109505 -9.292574 -11.014501 -1.890816 -0.109178 -0.882109 0.000000 0.000000 0.000000 -3.442060 22.255718 1.789159 -72.646369 30.156945 0.925001 -4.259721 -19.002164 -0.013838 -2.970023 3.565066 -0.093009 -0.101173 -0.137871 -0.000000 0.000000 0.000000 0.000000 0.000000 0.000000 0.000000 9.618032 -3.732332 1.203303 56.183497 10.995511 -8.500851 3.414115 25.806295 0.012449 -0.523882 5.256837 -0.030043 0.131924 -0.147735 0.000000 0.000000 0.000000 0.000000 0.000000 0.000000 0.000000 
26.082906 17.031713 2.383883 119.271829 -86.049206 -107.798099 -8.442440 1.453454 2.916761 -17.228632 1.182444 -34.066249 -2.874610 0.198080 26.691578 2.184739 7.914125 -16.824066 -1.517100 0.000000 -29.253500 11.739633 -4.671005 -0.286409 -0.250794 -13.692784 2.180541 -0.089831 -2.234935 28.036389 -0.773743 4.037113 27.399320 2.640900 0.000001 -84.537400 -5.109556 0.297504 -4.347492 -1.588323 0.503975 -3.383002 -5.208238 0.392197 2.180411 9.217821 -9.293657 -10.980495 -1.905452 -0.110643 -0.873882 0.000000 0.000000 0.000000 -3.352780 22.247739 1.778818 -72.653434 29.868436 0.401627 -4.281162 -18.821302 -0.014027 -2.994317 3.628155 -0.095307 -0.102680 -0.136476 -0.000000 0.000000 0.000000 0.000000 0.000000 0.000000 0.000000 9.767649 -3.739206 1.182614 56.472804 10.475030 -8.435123 3.448126 25.660427 0.012847 -0.267211 5.193262 -0.017650 0.130606 -0.143882 0.000000 0.000000 0.000000 0.000000 0.000000 0.000000 0.000000 
